<svg xmlns="http://www.w3.org/2000/svg" width="24.485" height="24.971" viewBox="0 0 24.485 24.971">
  <g id="_9041645_arrow_top_right_icon_1_" data-name="9041645_arrow_top_right_icon (1)" transform="translate(2 2)">
    <path id="Path_3722" data-name="Path 3722" d="M20.485,22.485a2,2,0,0,1-2-2V2H0A2,2,0,0,1-2,0,2,2,0,0,1,0-2H20.485a2,2,0,0,1,2,2V20.485A2,2,0,0,1,20.485,22.485Z" transform="translate(0 0)" fill="#12b3a8"/>
    <path id="Path_3723" data-name="Path 3723" d="M4.144,22.971A2,2,0,0,1,2.671,19.62L21.89-1.351a2,2,0,0,1,2.826-.123,2,2,0,0,1,.123,2.826L5.619,22.323A2,2,0,0,1,4.144,22.971Z" transform="translate(-2.88 0)" fill="#12b3a8"/>
  </g>
</svg>
