<svg xmlns="http://www.w3.org/2000/svg" width="12.418" height="12.418" viewBox="0 0 12.418 12.418">
  <g id="_9041645_arrow_top_right_icon_1_" data-name="9041645_arrow_top_right_icon (1)" transform="translate(1 1)">
    <path id="Path_3722" data-name="Path 3722" d="M10.418,11.418a1,1,0,0,1-1-1V1H0A1,1,0,0,1-1,0,1,1,0,0,1,0-1H10.418a1,1,0,0,1,1,1V10.418A1,1,0,0,1,10.418,11.418Z" transform="translate(0 0)" fill="#4b616c"/>
    <path id="Path_3723" data-name="Path 3723" d="M0,11.074a1,1,0,0,1-.7-.291,1,1,0,0,1,0-1.414L9.3-.7a1,1,0,0,1,1.414,0,1,1,0,0,1,0,1.414L.709,10.779A1,1,0,0,1,0,11.074Z" transform="translate(0.205 0.172)" fill="#4b616c"/>
  </g>
</svg>
