<svg xmlns="http://www.w3.org/2000/svg" width="23.396" height="23.392" viewBox="0 0 23.396 23.392">
  <g id="_9041787_duplicate_alt_icon" data-name="9041787_duplicate_alt_icon" transform="translate(0.5 0.497)">
    <path id="Path_5209" data-name="Path 5209" d="M16.547,17.873V7.175A2.675,2.675,0,0,0,13.873,4.5H3.175A2.675,2.675,0,0,0,.5,7.175v10.7a2.675,2.675,0,0,0,2.675,2.675h10.7A2.675,2.675,0,0,0,16.547,17.873Z" transform="translate(0 1.348)" fill="none" stroke="#dbf6ff" stroke-linecap="round" stroke-linejoin="round" stroke-width="2" fill-rule="evenodd"/>
    <path id="Path_5210" data-name="Path 5210" d="M15.2,16.546h2.675a2.675,2.675,0,0,0,2.675-2.675V3.178A2.675,2.675,0,0,0,17.873.5h0L7.17.522A2.675,2.675,0,0,0,4.5,3.2V5.848" transform="translate(1.349)" fill="none" stroke="#dbf6ff" stroke-linecap="round" stroke-linejoin="round" stroke-width="2" fill-rule="evenodd"/>
  </g>
</svg>
