<svg xmlns="http://www.w3.org/2000/svg" width="20.507" height="20.541" viewBox="0 0 20.507 20.541">
    <g id="_8665553_gift_icon" data-name="8665553_gift_icon" transform="translate(0 0)"
        fill="#12b3a8">
        <path
            d="M 17.97339248657227 19.54101943969727 L 12.55834674835205 19.54101943969727 L 12.58642101287842 12.5543098449707 L 18.25721168518066 12.5543098449707 L 18.25721168518066 19.25720024108887 C 18.25721168518066 19.41370010375977 18.12989234924316 19.54101943969727 17.97339248657227 19.54101943969727 Z M 7.986702442169189 19.54101943969727 L 2.567632675170898 19.54101943969727 C 2.411132574081421 19.54101943969727 2.283812522888184 19.41370010375977 2.283812522888184 19.25720024108887 L 2.283812522888184 12.5543098449707 L 7.986702442169189 12.5543098449707 L 7.986702442169189 19.54101943969727 Z M 19.22110176086426 9.26930046081543 L 1.247702598571777 9.26930046081543 C 1.135512590408325 9.26930046081543 1.00000262260437 9.143239974975586 1.00000262260437 8.986690521240234 L 1.00000262260437 6.419060230255127 C 1.00000262260437 6.262570381164551 1.127322554588318 6.135250091552734 1.283812522888184 6.135250091552734 L 2.974842548370361 6.135250091552734 L 4.625922679901123 6.135250091552734 L 4.055483818054199 5.043939590454102 C 4.52845573425293 5.704221725463867 5.302002429962158 6.135250091552734 6.174342632293701 6.135250091552734 L 9.628602981567383 6.135250091552734 L 11.50455284118652 6.135250091552734 L 14.36668300628662 6.135250091552734 C 15.24133777618408 6.135250091552734 16.01668357849121 5.701760292053223 16.48921394348145 5.038327693939209 L 15.91683292388916 6.135250091552734 L 17.56659317016602 6.135250091552734 L 19.25721168518066 6.135250091552734 C 19.35963249206543 6.135250091552734 19.42158317565918 6.184330463409424 19.44938278198242 6.213590145111084 C 19.49012184143066 6.256450176239014 19.50924301147461 6.308500289916992 19.50620269775391 6.368270397186279 L 19.50491333007812 6.393650054931641 L 19.50491333007812 6.419060230255127 L 19.50491333007812 8.986690521240234 C 19.50491333007812 9.139880180358887 19.37494277954102 9.26930046081543 19.22110176086426 9.26930046081543 Z M 16.95197296142578 3.846566677093506 C 16.96455574035645 3.742958545684814 16.97104263305664 3.637429714202881 16.97104263305664 3.530480146408081 C 16.97104263305664 3.412748098373413 16.96317672729492 3.296703815460205 16.94796943664551 3.183066129684448 C 16.98115539550781 3.407273769378662 16.98247337341309 3.628116369247437 16.95197296142578 3.846566677093506 Z M 3.586763381958008 3.830661058425903 C 3.559273242950439 3.623533487319946 3.5604088306427 3.414275169372559 3.59019136428833 3.201928377151489 C 3.576590061187744 3.309541940689087 3.569572687149048 3.419235229492188 3.569572687149048 3.530480146408081 C 3.569572687149048 3.631994724273682 3.575407028198242 3.732140064239502 3.586763381958008 3.830661058425903 Z M 16.66930770874023 2.314317464828491 C 16.50821304321289 2.010449647903442 16.2886962890625 1.742112874984741 16.02587509155273 1.524297595024109 C 16.29538536071777 1.732849597930908 16.51506233215332 1.997585892677307 16.66593170166016 2.307380199432373 C 16.66707229614258 2.309716701507568 16.66817283630371 2.311981916427612 16.66930770874023 2.314317464828491 Z M 3.876163005828857 2.305206298828125 C 4.024744987487793 2.00162410736084 4.23928165435791 1.741410970687866 4.501863956451416 1.535038828849792 C 4.247317790985107 1.74872887134552 4.034165382385254 2.010012626647949 3.876163005828857 2.305206298828125 Z"
            stroke="none" />
        <path
            d="M 17.25721168518066 18.54101943969727 L 17.25721168518066 13.5543098449707 L 13.5824089050293 13.5543098449707 L 13.56237125396729 18.54101943969727 L 17.25721168518066 18.54101943969727 M 6.986702442169189 18.54101943969727 L 6.986702442169189 13.5543098449707 L 3.283812522888184 13.5543098449707 L 3.283812522888184 18.54101943969727 L 6.986702442169189 18.54101943969727 M 18.50491333007812 8.26930046081543 L 18.50491333007812 7.135250091552734 L 2.00000262260437 7.135250091552734 L 2.00000262260437 8.26930046081543 L 18.50491333007812 8.26930046081543 M 17.97339248657227 20.54101943969727 L 11.55432224273682 20.54101943969727 L 11.59043216705322 11.5543098449707 L 19.25721168518066 11.5543098449707 L 19.25721168518066 19.25720024108887 C 19.25721168518066 19.96730995178223 18.68310165405273 20.54101943969727 17.97339248657227 20.54101943969727 Z M 8.986702919006348 20.54101943969727 L 2.567632675170898 20.54101943969727 C 1.857922554016113 20.54101943969727 1.283812522888184 19.96730995178223 1.283812522888184 19.25720024108887 L 1.283812522888184 11.5543098449707 L 8.986702919006348 11.5543098449707 L 8.986702919006348 20.54101943969727 Z M 19.22110176086426 10.26930046081543 L 1.247702598571777 10.26930046081543 C 0.5777125954627991 10.26930046081543 2.58087152360531e-06 9.692780494689941 2.58087152360531e-06 8.986690521240234 L 2.58087152360531e-06 6.419060230255127 C 2.58087152360531e-06 5.710150241851807 0.5749126076698303 5.135250091552734 1.283812522888184 5.135250091552734 L 2.974842548370361 5.135250091552734 C 2.494612693786621 4.216520309448242 2.372252464294434 3.10722017288208 2.976042509078979 1.869540214538574 C 3.555362701416016 0.681610107421875 4.790270805358887 -0.0006396276294253767 6.118172645568848 -9.761047294887248e-06 C 7.795162677764893 0.0006202389486134052 8.878372192382812 0.855330228805542 10.27051258087158 2.740130186080933 C 11.6631908416748 0.8546014428138733 12.74867248535156 -1.019095270748949e-05 14.42469024658203 -1.019073442876106e-05 C 15.75189208984375 -1.019073442876106e-05 16.98674583435059 0.6821902990341187 17.56498336791992 1.869540214538574 C 18.16878318786621 3.10722017288208 18.04641342163086 4.215710163116455 17.56659317016602 5.135250091552734 L 19.25721168518066 5.135250091552734 C 19.96732330322266 5.135250091552734 20.54102325439453 5.708950042724609 20.50491333007812 6.419060230255127 L 20.50491333007812 8.986690521240234 C 20.50491333007812 9.692780494689941 19.92720222473145 10.26930046081543 19.22110176086426 10.26930046081543 Z M 14.36628246307373 1.925710201263428 C 13.56791305541992 1.925710201263428 12.9785623550415 2.05810022354126 10.91242218017578 5.135250091552734 L 14.36668300628662 5.135250091552734 C 15.25331211090088 5.135250091552734 15.97104263305664 4.416710376739502 15.97104263305664 3.530480146408081 C 15.97104263305664 2.644250154495239 15.25251293182373 1.925710201263428 14.36628246307373 1.925710201263428 Z M 9.628602981567383 5.135250091552734 C 7.56246280670166 2.05810022354126 6.972712516784668 1.925710201263428 6.174342632293701 1.925710201263428 C 5.288112640380859 1.925710201263428 4.569572448730469 2.644250154495239 4.569572448730469 3.530480146408081 C 4.569572448730469 4.416710376739502 5.288112640380859 5.135250091552734 6.174342632293701 5.135250091552734 L 9.628602981567383 5.135250091552734 Z"
            stroke="none" fill="#13c9bd" />
    </g>
</svg>
  