<svg xmlns="http://www.w3.org/2000/svg" width="18.114" height="18.258" viewBox="0 0 18.114 18.258">
  <path id="Union_328" data-name="Union 328" d="M-8420.347-8418.295a2.667,2.667,0,0,1-2.653-2.674v-10.145a2.666,2.666,0,0,1,2.653-2.672h5.49a.829.829,0,0,1,.826.83.831.831,0,0,1-.826.83h-5.49a1.01,1.01,0,0,0-1,1.012v10.145a1.011,1.011,0,0,0,1,1.014h10.062a1.013,1.013,0,0,0,1.008-1.014v-5.533a.827.827,0,0,1,.823-.83.829.829,0,0,1,.824.83v5.533a2.669,2.669,0,0,1-2.655,2.674Zm3.656-7.267,8.332-9.331h-2.842a.827.827,0,0,1-.825-.83.829.829,0,0,1,.825-.83h5.488a.831.831,0,0,1,.826.83v5.533a.831.831,0,0,1-.826.832.828.828,0,0,1-.823-.832v-4.261l-8.927,10Z" transform="translate(8423 8436.553)" fill="#dbedff"/>
</svg>
