<svg xmlns="http://www.w3.org/2000/svg" width="20.862" height="20.947" viewBox="0 0 20.862 20.947">
  <path id="Union_324" data-name="Union 324" d="M2.948,21.4A2.957,2.957,0,0,1,0,18.443V6.636A2.957,2.957,0,0,1,2.948,3.677H9.364a.813.813,0,0,1,0,1.625H2.948A1.333,1.333,0,0,0,1.62,6.636V18.443a1.333,1.333,0,0,0,1.328,1.335H14.71a1.334,1.334,0,0,0,1.329-1.335V12a.81.81,0,1,1,1.619,0v6.44A2.958,2.958,0,0,1,14.71,21.4Zm4.49-8.317,10.624-11H13.639a.813.813,0,0,1,0-1.625h6.415a.811.811,0,0,1,.809.813v6.44a.81.81,0,1,1-1.619,0V3.192L8.642,14.173Z" transform="translate(-0.001 -0.456)" fill="#5b7481"/>
</svg>
