<svg xmlns="http://www.w3.org/2000/svg" width="35.879" height="29.87" viewBox="0 0 35.879 29.87">
  <path id="Path_5208" data-name="Path 5208" d="M88.858,158.618s15.426-6.331,20.776-8.56c2.051-.892,9.006-3.745,9.006-3.745s3.21-1.248,2.942,1.783c-.089,1.248-.8,5.617-1.516,10.343-1.07,6.688-2.229,14-2.229,14s-.178,2.051-1.694,2.408-4.013-1.248-4.458-1.605c-.357-.267-6.687-4.28-9.006-6.242-.624-.535-1.337-1.6.089-2.853,3.21-2.943,7.044-6.6,9.362-8.917,1.07-1.07,2.14-3.567-2.318-.535-6.331,4.369-12.572,8.471-12.572,8.471s-1.427.892-4.1.089-5.8-1.872-5.8-1.872S85.2,160.044,88.858,158.618Z" transform="translate(-86.218 -145.556)" fill="#bde0eb" stroke="rgba(0,0,0,0)" stroke-miterlimit="10" stroke-width="1"/>
</svg>
