<svg xmlns="http://www.w3.org/2000/svg" width="39.545" height="30.4" viewBox="0 0 39.545 30.4">
  <path id="Ryze.fi_Twitter" data-name="Ryze.fi – Twitter" d="M37.63,7.451a14.782,14.782,0,0,1-4.244,1.19,7.419,7.419,0,0,0,3.243-4.106,14.908,14.908,0,0,1-4.693,1.811A7.289,7.289,0,0,0,26.485,4a7.393,7.393,0,0,0-7.367,7.4,7.693,7.693,0,0,0,.19,1.691A21.037,21.037,0,0,1,4.057,5.363a7.372,7.372,0,0,0,2.295,9.851,7.32,7.32,0,0,1-3.364-.863V14.4a7.406,7.406,0,0,0,5.935,7.263,7.281,7.281,0,0,1-3.33.121,7.384,7.384,0,0,0,6.9,5.141A14.7,14.7,0,0,1,3.3,30.1,15.024,15.024,0,0,1,1.543,30a20.951,20.951,0,0,0,11.347,3.33A20.937,20.937,0,0,0,33.955,12.264c0-.328,0-.638-.017-.966A14.789,14.789,0,0,0,37.63,7.451Z" transform="translate(0.548 -3.43)" fill="#bde0eb" stroke="rgba(0,0,0,0)" stroke-miterlimit="10" stroke-width="1"/>
</svg>
