<svg xmlns="http://www.w3.org/2000/svg" width="14.509" height="14.509" viewBox="0 0 14.509 14.509">
  <g id="_9041645_arrow_top_right_icon_1_" data-name="9041645_arrow_top_right_icon (1)" transform="translate(0.75 0.75)">
    <path id="Path_3477" data-name="Path 3477" d="M14.509,14.259a.75.75,0,0,1-.75-.75V1.25H1.5a.75.75,0,1,1,0-1.5H15.259V13.509A.75.75,0,0,1,14.509,14.259Z" transform="translate(-1.5 -0.5)" fill="#c1d6eb"/>
    <path id="Path_3478" data-name="Path 3478" d="M.5,14.259a.75.75,0,0,1-.54-1.271L12.512-.021a.75.75,0,1,1,1.079,1.042L1.04,14.03A.748.748,0,0,1,.5,14.259Z" transform="translate(-0.043 -0.5)" fill="#c1d6eb"/>
  </g>
</svg>
