<svg xmlns="http://www.w3.org/2000/svg" width="169.419" height="206.61" viewBox="0 0 169.419 206.61">
  <g id="Arbitrum_Goerli" data-name="Arbitrum Goerli" opacity="0.025">
    <path id="Path_5135" data-name="Path 5135" d="M.531,56v80.993a14.713,14.713,0,0,0,6.7,12.53l64.885,40.5a12.54,12.54,0,0,0,13.378,0l64.885-40.5a14.713,14.713,0,0,0,6.7-12.53V56a14.713,14.713,0,0,0-6.7-12.53L85.492,2.966a12.542,12.542,0,0,0-13.378,0l-64.9,40.5A14.7,14.7,0,0,0,.531,56Z" transform="translate(5.896 6.8)" fill="#213147"/>
    <path id="Path_5136" data-name="Path 5136" d="M16.832,10.2,7.578,37.628a3.784,3.784,0,0,0,0,2.357L23.5,87.187l18.413-11.5-22.1-65.5A1.547,1.547,0,0,0,16.832,10.2Z" transform="translate(82.024 108.81)" fill="#12aaff"/>
    <path id="Path_5137" data-name="Path 5137" d="M21.1,6.829a1.547,1.547,0,0,0-2.98,0L8.865,34.262a3.783,3.783,0,0,0,0,2.357L34.948,113.9l18.414-11.5Z" transform="translate(96.31 66.043)" fill="#12aaff"/>
    <path id="Path_5138" data-name="Path 5138" d="M84.694,13.262a2.636,2.636,0,0,1,1.317.373l70.217,43.828a2.9,2.9,0,0,1,1.318,2.459v87.639a2.883,2.883,0,0,1-1.318,2.458L86.011,193.847a2.431,2.431,0,0,1-1.317.373,2.639,2.639,0,0,1-1.317-.373L13.159,150.054a2.9,2.9,0,0,1-1.317-2.458V59.939a2.883,2.883,0,0,1,1.317-2.459L83.376,13.652A2.494,2.494,0,0,1,84.694,13.262Zm0-12.8a13.613,13.613,0,0,0-7.246,2.1L7.246,46.375A15.93,15.93,0,0,0,0,59.939v87.639a15.931,15.931,0,0,0,7.246,13.564L77.464,204.97a13.54,13.54,0,0,0,14.492,0l70.217-43.828a15.933,15.933,0,0,0,7.246-13.564V59.939a15.931,15.931,0,0,0-7.246-13.564L91.94,2.564A13.613,13.613,0,0,0,84.694.462Z" transform="translate(0 -0.462)" fill="#9dcced"/>
    <path id="Path_5139" data-name="Path 5139" d="M3.162,31.33,9.624,12.205l13,11.681-12.155,12Z" transform="translate(35.091 148.712)" fill="#213147"/>
    <path id="Path_5140" data-name="Path 5140" d="M60.58,4.344h-17.8A3.189,3.189,0,0,0,39.8,6.6L1.64,119.688l18.413,11.5L62.07,6.65A1.692,1.692,0,0,0,60.58,4.344Z" transform="translate(18.199 48.86)" fill="#bde0eb"/>
    <path id="Path_5141" data-name="Path 5141" d="M68.119,4.344h-17.8A3.189,3.189,0,0,0,47.337,6.6L3.767,135.726l18.413,11.5L69.609,6.65A1.706,1.706,0,0,0,68.119,4.344Z" transform="translate(41.811 48.86)" fill="#bde0eb"/>
  </g>
</svg>
