<svg xmlns="http://www.w3.org/2000/svg" width="45.037" height="48.496" viewBox="0 0 45.037 48.496">
  <g id="Arbitrum_Goerli" data-name="Arbitrum Goerli" transform="translate(0 -0.462)">
    <path id="Path_5126" data-name="Path 5126" d="M.531,13.935V32.946a3.37,3.37,0,0,0,1.78,2.941L19.56,45.395a3.711,3.711,0,0,0,3.556,0l17.249-9.508a3.37,3.37,0,0,0,1.78-2.941V13.935a3.37,3.37,0,0,0-1.78-2.941L23.117,1.487a3.712,3.712,0,0,0-3.556,0L2.307,10.994A3.366,3.366,0,0,0,.531,13.935Z" transform="translate(1.177 1.267)" fill="#213147"/>
    <path id="Path_5127" data-name="Path 5127" d="M9.9,9.329,7.44,15.768a.79.79,0,0,0,0,.553L11.672,27.4l4.895-2.7L10.692,9.329A.428.428,0,0,0,9.9,9.329Z" transform="translate(16.379 19.066)" fill="#12aaff"/>
    <path id="Path_5128" data-name="Path 5128" d="M11.979,5.963a.428.428,0,0,0-.792,0L8.727,12.4a.79.79,0,0,0,0,.553l6.933,18.139,4.895-2.7Z" transform="translate(19.232 11.604)" fill="#12aaff"/>
    <path id="Path_5129" data-name="Path 5129" d="M22.514,3.466a.772.772,0,0,1,.35.088L41.531,13.841a.665.665,0,0,1,.35.577V34.989a.661.661,0,0,1-.35.577L22.865,45.854a.711.711,0,0,1-.35.087.773.773,0,0,1-.35-.087L3.5,35.575A.665.665,0,0,1,3.148,35V14.422a.661.661,0,0,1,.35-.577L22.164,3.558A.728.728,0,0,1,22.514,3.466Zm0-3a3.979,3.979,0,0,0-1.926.493L1.926,11.239A3.648,3.648,0,0,0,0,14.422V34.993a3.648,3.648,0,0,0,1.926,3.184L20.592,48.465a4.007,4.007,0,0,0,3.852,0L43.111,38.177a3.649,3.649,0,0,0,1.926-3.184V14.422a3.648,3.648,0,0,0-1.926-3.184L24.441.955A3.979,3.979,0,0,0,22.514.462Z" transform="translate(0 0)" fill="#9dcced"/>
    <path id="Path_5130" data-name="Path 5130" d="M3.162,16.694l1.718-4.489,3.456,2.742L5.1,17.765Z" transform="translate(7.007 26.028)" fill="#213147"/>
    <path id="Path_5131" data-name="Path 5131" d="M17.308,4.344H12.576a.841.841,0,0,0-.792.529L1.64,31.418l4.895,2.7L17.7,4.886A.4.4,0,0,0,17.308,4.344Z" transform="translate(3.634 8.605)" fill="#bde0eb"/>
    <path id="Path_5132" data-name="Path 5132" d="M20.874,4.344H16.142a.841.841,0,0,0-.792.529L3.767,35.183l4.895,2.7,12.608-33A.406.406,0,0,0,20.874,4.344Z" transform="translate(8.349 8.605)" fill="#bde0eb"/>
  </g>
</svg>
