<svg xmlns="http://www.w3.org/2000/svg" width="20" height="20" viewBox="0 0 20 20">
    <g id="_2867949_trophy_icon" data-name="2867949_trophy_icon" transform="translate(-2 -2)"
        fill="#12b3a8" stroke-linecap="round" stroke-linejoin="round">
        <path
            d="M 11.99999713897705 21 L 11.99999713897705 20 L 11.99999713897705 17.92000007629395 L 11.99999713897705 17.075439453125 L 11.1673469543457 16.9340991973877 C 9.663187026977539 16.67877960205078 8.375337600708008 15.76756954193115 7.634017467498779 14.43410015106201 L 7.283967018127441 13.80445957183838 L 7.227445602416992 13.81504726409912 L 7.066747188568115 12.83775043487549 C 7.021527290344238 12.56274032592773 6.999067306518555 12.2819995880127 6.999987125396729 12.00331020355225 L 6.999997138977051 6 L 6.999997138977051 5 L 5.999997138977051 5 L 3.999997138977051 5 L 5.999997138977051 5 L 6.999997138977051 5 L 6.999997138977051 4 C 6.999997138977051 3.448600053787231 7.448597431182861 3 7.999997138977051 3 L 15.99999713897705 3 C 16.5513973236084 3 16.99999809265137 3.448600053787231 16.99999809265137 4 L 16.99999809265137 5 L 17.99999809265137 5 L 19.99999809265137 5 L 17.99999809265137 5 L 16.99999809265137 5 L 16.99999809265137 6 L 16.99999809265137 12 C 16.99999809265137 12.26692008972168 16.97751808166504 12.54502010345459 16.93127632141113 12.85019016265869 L 16.78385925292969 13.82317352294922 L 16.71981811523438 13.8107795715332 L 16.36700630187988 14.44225978851318 C 15.62389755249023 15.77233982086182 14.33604717254639 16.68051910400391 12.83367729187012 16.93392944335938 L 11.99999713897705 17.07455062866211 L 11.99999713897705 17.92000007629395 L 11.99999713897705 20 L 11.99999713897705 21 Z M 17.99996757507324 14.00290012359619 C 17.95621681213379 14.00290012359619 17.91241455078125 14.00193119049072 17.86861610412598 14 L 17.91999816894531 14 L 17.99999809265137 14 C 19.65420722961426 14 20.99999809265137 12.65421009063721 20.99999809265137 11 C 21.00064659118652 11.89984035491943 20.60335731506348 12.74382019042969 19.9100170135498 13.31626033782959 C 19.37373733520508 13.75903034210205 18.69540786743164 14.00288009643555 17.99996757507324 14.00290012359619 Z M 2.999997138977051 10.99567890167236 L 2.999997138977051 6 L 2.999997138977051 10.99567890167236 Z"
            stroke="none" />
        <path
            d="M 11.99999904632568 16.18764495849609 C 12.20162487030029 16.07118797302246 12.4264030456543 15.98849964141846 12.6673469543457 15.94785976409912 C 13.86924743652344 15.74512958526611 14.89952754974365 15.01858997344971 15.49401760101318 13.95452976226807 C 15.61605262756348 13.73610019683838 15.7747049331665 13.54751491546631 15.95914745330811 13.39380836486816 C 15.91376304626465 13.16787624359131 15.90726661682129 12.93336868286133 15.94256687164307 12.70038986206055 C 15.9812068939209 12.4453296661377 15.99999713897705 12.21623039245605 15.99999713897705 12 L 15.99999713897705 6 C 15.99999713897705 5.635742664337158 16.0974178314209 5.294157028198242 16.2675609588623 5 C 16.0974178314209 4.705842971801758 15.99999713897705 4.364257335662842 15.99999713897705 4 L 8.003573417663574 4.000010013580322 C 8.002336502075195 4.001045227050781 8.00102710723877 4.002355575561523 7.999993801116943 4.003591537475586 C 7.999347686767578 4.36648416519165 7.902009963989258 4.706823348999023 7.732432842254639 5 C 7.902576923370361 5.294157028198242 7.999997138977051 5.635742664337158 7.999997138977051 6 L 7.999997138977051 12 C 7.999997138977051 12.00220966339111 7.999997138977051 12.00442028045654 7.999987125396729 12.00662994384766 C 7.999247074127197 12.23001956939697 8.017247200012207 12.45506000518799 8.053497314453125 12.67549991607666 C 8.092629432678223 12.91348648071289 8.088008880615234 13.15369987487793 8.042542457580566 13.38525581359863 C 8.227301597595215 13.53958797454834 8.386143684387207 13.72896957397461 8.508027076721191 13.94820976257324 C 9.10108757019043 15.01498031616211 10.13136768341064 15.74394989013672 11.33469676971436 15.94820022583008 C 11.57487773895264 15.98896980285645 11.79895114898682 16.07151985168457 11.99999904632568 16.18764495849609 M 16.99999809265137 22 L 6.999997138977051 22 C 6.447717189788818 22 5.999997138977051 21.55228042602539 5.999997138977051 21 C 5.999997138977051 20.44771957397461 6.447717189788818 20 6.999997138977051 20 L 10.99999713897705 20 L 10.99999713897705 17.92000007629395 C 9.20463752746582 17.61524963378906 7.644837379455566 16.51161956787109 6.759997367858887 14.92000007629395 C 5.590057373046875 15.13914585113525 4.383157730102539 14.82855987548828 3.464337348937988 14.07188034057617 C 2.545517206192017 13.31521034240723 2.009267330169678 12.19025039672852 1.99999725818634 11 L 1.99999725818634 6 C 1.99999725818634 4.900000095367432 2.899997234344482 4 3.999997138977051 4 L 5.999997138977051 4 C 5.999997138977051 2.900000095367432 6.899997234344482 2 7.999997138977051 2 L 15.99999713897705 2 C 17.10456657409668 2 17.99999809265137 2.895430088043213 17.99999809265137 4 L 19.99999809265137 4 C 21.10456657409668 4 21.99999809265137 4.895430088043213 21.99999809265137 6 L 21.99999809265137 11 C 22.00085639953613 12.1945104598999 21.46781730651855 13.32688999176025 20.54668807983398 14.08740043640137 C 19.62556838989258 14.84790897369385 18.41274833679199 15.15696048736572 17.23999786376953 14.93000030517578 C 16.35290718078613 16.51778984069824 14.79346752166748 17.61749076843262 12.99999713897705 17.92000007629395 L 12.99999713897705 20 L 16.99999809265137 20 C 17.55228805541992 20 17.99999809265137 20.44771957397461 17.99999809265137 21 C 17.99999809265137 21.55228042602539 17.55228805541992 22 16.99999809265137 22 Z M 3.999997138977051 6 L 3.999997138977051 11 C 3.999567270278931 11.54458999633789 4.221227169036865 12.06581020355225 4.613777160644531 12.44326972961426 C 5.00633716583252 12.82073020935059 5.535842895507812 13.0217809677124 6.079997062683105 13 C 6.025647163391113 12.66946029663086 5.998887062072754 12.33498001098633 5.999997138977051 12 L 5.999997138977051 6 L 3.999997138977051 6 Z M 17.99999809265137 6 L 17.99999809265137 12 C 17.99999809265137 12.34000015258789 17.96999740600586 12.67000007629395 17.91999816894531 13 L 17.99999809265137 13 C 19.10456657409668 13 19.99999809265137 12.10457038879395 19.99999809265137 11 L 19.99999809265137 6 L 17.99999809265137 6 Z"
            stroke="none" fill="#12b3a8" />
    </g>
</svg>
  