<svg xmlns="http://www.w3.org/2000/svg" width="129.103" height="30.593" viewBox="0 0 129.103 30.593">
  <g id="Ryze_Logo" data-name="Ryze Logo" transform="translate(-476.593 -450.067)">
    <g id="Group_14078" data-name="Group 14078" transform="translate(527.705 456.756)">
      <path id="Subtraction_123" data-name="Subtraction 123" d="M31.267,17.215H27.723V11.139h-1.35v-.157l-.07.1L20.634,7.112l.017-.024h-.017V0h3.544V5.267L27.5,7.593h3.755l3.323-2.326V0h3.544V7.088h-.017l.017.025-5.669,3.969-.007-.01v.067H31.267Zm46.224,0H60.276V3.872h.1l-.054-.053L64.138,0l.02.02V0H77.491V3.544H65.607L63.82,5.33v1.7H77.49v3.543H63.82v3.1H77.49v3.544Zm-19.719,0H40.559V13.67h.008v-.5h0L52.892,3.544H40.559V0h17.32V4.209h-.117l.014.017L45.688,13.67H57.772v3.544ZM3.544,17.046H3.51L0,14.344V0L15.459.02l2.688,3.544-3.9,5.165L20.5,17.041l-4.4,0-4.452-5.907h-8.1v5.907Zm0-13.5v4.05h7.119l3.063-4.05Z" fill="#bde0eb" stroke="rgba(0,0,0,0)" stroke-miterlimit="10" stroke-width="1"/>
    </g>
    <path id="Path_4134" data-name="Path 4134" d="M-15475.666,7339.382l11.134,8.541,19.458.143-7.141,9.283,16.55,12.625h14.016l-18.414-14.239,5.79-7.67-11.412-8.684Z" transform="translate(15952.259 -6889.315)" fill="#12b3a8"/>
  </g>
</svg>
