<?xml version="1.0" encoding="UTF-8"?>
<svg xmlns="http://www.w3.org/2000/svg" xmlns:xlink="http://www.w3.org/1999/xlink" width="32px" height="32px" viewBox="0 0 32 32" version="1.1">
<g id="surface1">
<path style=" stroke:none;fill-rule:nonzero;fill:rgb(100%,1.568627%,12.54902%);fill-opacity:1;" d="M 32 16 C 32 7.167969 24.832031 0 16 0 C 7.167969 0 0 7.167969 0 16 C 0 24.832031 7.167969 32 16 32 C 24.832031 32 32 24.832031 32 16 Z M 32 16 "/>
<path style=" stroke:none;fill-rule:nonzero;fill:rgb(100%,100%,100%);fill-opacity:1;" d="M 11.339844 20.25 C 10.378906 20.25 9.601562 20.019531 9 19.570312 C 8.398438 19.109375 8.089844 18.457031 8.089844 17.625 C 8.089844 17.445312 8.113281 17.230469 8.152344 16.972656 C 8.257812 16.398438 8.410156 15.707031 8.601562 14.886719 C 9.152344 12.683594 10.558594 11.585938 12.824219 11.585938 C 13.441406 11.585938 14.003906 11.6875 14.488281 11.902344 C 14.976562 12.109375 15.359375 12.414062 15.640625 12.824219 C 15.921875 13.234375 16.0625 13.707031 16.0625 14.273438 C 16.0625 14.4375 16.039062 14.65625 16 14.910156 C 15.871094 15.628906 15.730469 16.320312 15.566406 17 C 15.28125 18.097656 14.796875 18.917969 14.105469 19.46875 C 13.414062 20.007812 12.492188 20.273438 11.339844 20.273438 Z M 11.519531 18.523438 C 11.96875 18.523438 12.351562 18.378906 12.660156 18.125 C 12.980469 17.855469 13.210938 17.460938 13.351562 16.910156 C 13.542969 16.152344 13.683594 15.5 13.773438 14.9375 C 13.8125 14.769531 13.824219 14.59375 13.824219 14.414062 C 13.824219 13.683594 13.441406 13.3125 12.683594 13.3125 C 12.238281 13.3125 11.851562 13.453125 11.53125 13.707031 C 11.210938 13.976562 10.996094 14.375 10.855469 14.925781 C 10.699219 15.460938 10.558594 16.113281 10.417969 16.894531 C 10.378906 17.0625 10.367188 17.230469 10.367188 17.40625 C 10.355469 18.152344 10.753906 18.523438 11.519531 18.523438 Z M 11.519531 18.523438 "/>
<path style=" stroke:none;fill-rule:nonzero;fill:rgb(100%,100%,100%);fill-opacity:1;" d="M 16.601562 20.132812 C 16.511719 20.132812 16.449219 20.109375 16.398438 20.042969 C 16.359375 19.980469 16.34375 19.902344 16.359375 19.828125 L 18.023438 12.019531 C 18.035156 11.929688 18.085938 11.851562 18.164062 11.800781 C 18.238281 11.738281 18.316406 11.710938 18.394531 11.710938 L 21.59375 11.710938 C 22.488281 11.710938 23.195312 11.902344 23.730469 12.261719 C 24.28125 12.632812 24.550781 13.171875 24.550781 13.863281 C 24.550781 14.066406 24.523438 14.273438 24.472656 14.488281 C 24.269531 15.410156 23.871094 16.089844 23.257812 16.539062 C 22.65625 16.984375 21.824219 17.203125 20.773438 17.203125 L 19.148438 17.203125 L 18.597656 19.839844 C 18.574219 19.929688 18.535156 20.007812 18.457031 20.058594 C 18.378906 20.121094 18.304688 20.148438 18.226562 20.148438 L 16.589844 20.148438 Z M 20.851562 15.539062 C 21.195312 15.539062 21.476562 15.449219 21.734375 15.257812 C 21.992188 15.066406 22.15625 14.808594 22.246094 14.464844 C 22.273438 14.324219 22.285156 14.207031 22.285156 14.105469 C 22.285156 13.875 22.207031 13.695312 22.078125 13.566406 C 21.9375 13.441406 21.707031 13.375 21.375 13.375 L 19.929688 13.375 L 19.46875 15.527344 L 20.851562 15.527344 Z M 20.851562 15.539062 "/>
</g>
</svg>
