<svg xmlns="http://www.w3.org/2000/svg" width="56" height="56" viewBox="0 0 56 56">
  <g id="Ryze_Success_Icon" data-name="Ryze Success Icon" transform="translate(-757 -48)">
    <circle id="Ellipse_1045" data-name="Ellipse 1045" cx="28" cy="28" r="28" transform="translate(757 48)" fill="rgba(18,179,168,0.15)"/>
    <path id="Ellipse_1045_-_Outline" data-name="Ellipse 1045 - Outline" d="M28,2A26.007,26.007,0,0,0,17.88,51.958,26.007,26.007,0,0,0,38.12,4.042,25.835,25.835,0,0,0,28,2m0-2A28,28,0,1,1,0,28,28,28,0,0,1,28,0Z" transform="translate(757 48)" fill="#13c9bd"/>
    <path id="Path_3887" data-name="Path 3887" d="M781.217,85.608a2.492,2.492,0,0,1-1.757-.721L770.97,76.5a2.5,2.5,0,1,1,3.514-3.557l6.728,6.646,14.333-14.247a2.5,2.5,0,1,1,3.525,3.546L782.98,84.882A2.492,2.492,0,0,1,781.217,85.608Z" transform="translate(-0.017 0.888)" fill="#13c9bd"/>
  </g>
</svg>
